# xmcd
#
# Track frame offsets: 
#        150
#        12057
#        23447
#        34787
#        47200
#        57452
#        67217
#        79002
#        91270
#        102230
#        114055
#        124150
#        136445
#        146917
#        158562
#        171060
#        182922
#        198020
#        209175
#        224185
#        235820
#        248630
#        259557
#        271587
#
# Disc length: 3793 seconds
#
# Revision: 3
# Processed by: cddbd v1.5.2PL0 Copyright (c) Steve Scherf et al.
# Submitted via: ExactAudioCopy v0.99pb5
#
DISCID=530ecf18
DTITLE=Bobby Bare - The Singles, 1959-1969 Disc 2
DYEAR=1999
DGENRE=Country
TTITLE0=The Streets Of Baltimore
TTITLE1=She Took My Sunshine Way
TTITLE2=Homesick
TTITLE3=Guess I'll Move On Down The Line
TTITLE4=Charleston Railroad Tavern
TTITLE5=Vincennes
TTITLE6=Come Kiss Me Love
TTITLE7=Sandy's Crying Again
TTITLE8=The Piney Wood Hills
TTITLE9=They Covered Up The Old Swimming Hole
TTITLE10=Find Out What's Happening
TTITLE11=When Am I Ever Gonna Settle Down
TTITLE12=A Little Bit Later On Down The Line
TTITLE13=Don't Do Like I Done Son
TTITLE14=The Town That Broke My Heart
TTITLE15=My Baby
TTITLE16=(Margie's At) The Lincoln Park Inn
TTITLE17=Rainy Day In Richmond
TTITLE18=Which One Will It Be
TTITLE19=My Frame Of Mind
TTITLE20=God Bless America Again
TTITLE21=Baby What Else Can I Do
TTITLE22=Rosalie [German]
TTITLE23=Alle Glauben Dass Ich Glücklich Bin [German]
EXTD=
EXTT0=
EXTT1=
EXTT2=
EXTT3=
EXTT4=
EXTT5=
EXTT6=
EXTT7=
EXTT8=
EXTT9=
EXTT10=
EXTT11=
EXTT12=
EXTT13=
EXTT14=
EXTT15=
EXTT16=
EXTT17=
EXTT18=
EXTT19=
EXTT20=
EXTT21=
EXTT22=
EXTT23=
PLAYORDER=
